<svg xmlns="http://www.w3.org/2000/svg" viewBox="0 0 186.65 186.65"><defs><style>.cls-1{isolation:isolate;}.cls-2{fill:#f2f2fd;}.cls-3,.cls-6{fill:#ecc19c;}.cls-4{fill:#393ce0;}.cls-5{fill:#494846;}.cls-6{opacity:0.5;mix-blend-mode:multiply;}</style></defs><g class="cls-1"><g id="OBJECTS"><rect class="cls-2" width="186.65" height="186.65"/><path class="cls-3" d="M124.5,147.06h0a51.76,51.76,0,0,0-6.14-3.77.49.49,0,0,0-.18-.08c-10.17-5.33-17.06-15.59-17.06-27.4l-15.4-.07c0,11.84-7,22.16-17.21,27.47h0A55.6,55.6,0,0,0,62.24,147c-12.76,9-21,23.41-21,39.66H145.43C145.43,170.43,137.21,156.07,124.5,147.06Z"/><path class="cls-4" d="M145.42,186.64H41.22c0-16.25,8.26-30.65,21-39.65a53.47,53.47,0,0,1,6.21-3.77l0,0a32.49,32.49,0,0,0,4.76-3,29.2,29.2,0,0,0,40.21,0,29.81,29.81,0,0,0,4.7,3,.51.51,0,0,1,.18.09,50.48,50.48,0,0,1,6.14,3.77h0C137.2,156.06,145.42,170.43,145.42,186.64Z"/><path class="cls-3" d="M53.34,42.09V80.9c0,26.26,24.3,47.54,40,47.54s40-21.28,40-47.54V42.09Z"/><path class="cls-5" d="M126.8,35A47.94,47.94,0,0,0,90.05,18C63.76,18,42.47,38.8,42.47,64.46A45.83,45.83,0,0,0,58,98.83a49.84,49.84,0,0,1-3.84-19.37,48.42,48.42,0,0,1,9.51-29.22C70,52.9,80.2,53.86,91.41,52.4s20.57-4.93,25.9-9.07c9.73,8.15,16.06,21.29,16.06,36.13a49.46,49.46,0,0,1-4.59,21c9.39-3.69,16.3-16.83,16.3-32.47C145.08,51.27,137.16,37.47,126.8,35Z"/><path class="cls-6" d="M93.77,18.13V186.65H41.22a47.78,47.78,0,0,1,13.33-33A52.08,52.08,0,0,1,62.24,147a54.15,54.15,0,0,1,4.61-2.89c.53-.3,1.07-.59,1.61-.87a0,0,0,0,1,0,0c.42-.22.83-.44,1.25-.69a30.51,30.51,0,0,0,3.51-2.33h0a31.33,31.33,0,0,0,10.5-13.9C73.29,121.9,62,111.19,56.57,97.48a45.73,45.73,0,0,1-14.1-33C42.47,38.8,63.76,18,90.06,18,91.31,18,92.54,18,93.77,18.13Z"/></g></g></svg>