<?xml version="1.0" encoding="utf-8"?>
<!-- Generator: Adobe Illustrator 24.2.2, SVG Export Plug-In . SVG Version: 6.00 Build 0)  -->
<svg version="1.1" id="Layer_1" xmlns="http://www.w3.org/2000/svg" xmlns:xlink="http://www.w3.org/1999/xlink" x="0px" y="0px"
	 viewBox="0 0 2000 1800" style="enable-background:new 0 0 2000 1800;" xml:space="preserve">
<style type="text/css">
	.st0{fill:#FFFFFF;}
</style>
<g>
	<path class="st0" d="M0,0v1800h2000V0H0z M687.13,941.54h-83.57V630.77h83.57V941.54z M1071.89,941.54H993.1V770.48l-55.28,171.05
		h-60.93l-55.28-171.92v171.92h-77.04V630.77h97.06l66.59,208.05l67.03-208.05h96.63V941.54z M1385.26,905.85
		c-27.28,29.02-65,43.52-113.17,43.52c-31.92,0-59.27-6.53-82.04-19.59c-22.78-13.06-40.12-31.7-52.01-55.93
		c-11.9-24.22-17.85-53.03-17.85-86.4c0-51.64,13.64-91.98,40.91-121c27.27-29.01,65-43.52,113.17-43.52
		c31.92,0,59.26,6.53,82.04,19.59c22.78,13.06,40.11,31.71,52.01,55.93c11.89,24.23,17.84,53.03,17.84,86.4
		C1426.17,836.5,1412.53,876.83,1385.26,905.85z"/>
	<path class="st0" d="M1273.4,694.75c-22.06,0-38.67,7.69-49.84,23.07c-11.17,15.38-16.76,38.16-16.76,68.33
		c0,30.18,5.58,52.96,16.76,68.33c11.17,15.38,27.64,23.07,49.4,23.07c22.05,0,38.66-7.68,49.84-23.07
		c11.17-15.38,16.76-38.15,16.76-68.33C1339.56,725.22,1317.5,694.75,1273.4,694.75z"/>
</g>
</svg>
