<?xml version="1.0" encoding="utf-8"?>
<!-- Generator: Adobe Illustrator 25.0.1, SVG Export Plug-In . SVG Version: 6.00 Build 0)  -->
<svg version="1.1" id="Layer_1" xmlns="http://www.w3.org/2000/svg" xmlns:xlink="http://www.w3.org/1999/xlink" x="0px" y="0px"
	 viewBox="0 0 928.6 451" style="enable-background:new 0 0 928.6 451;" xml:space="preserve">
<style type="text/css">
	.st0{fill:#FFFFFF;}
</style>
<g>
	<path class="st0" d="M-444.9-552v1800h1801V-552H-444.9z M173.9,389.5H98.6V78.7h75.3V389.5z M520.3,389.5h-71V218.4l-49.8,171.1
		h-54.9L295,217.6v171.9h-69.4V78.7H313l60,208.1l60.4-208.1h87L520.3,389.5L520.3,389.5z M802.5,353.8
		c-24.6,29-58.5,43.5-101.9,43.5c-28.7,0-53.4-6.5-73.9-19.6c-20.5-13.1-36.1-31.7-46.8-55.9c-10.7-24.2-16.1-53-16.1-86.4
		c0-51.6,12.3-92,36.8-121c24.6-29,58.5-43.5,101.9-43.5c28.7,0,53.4,6.5,73.9,19.6s36.1,31.7,46.8,55.9
		c10.7,24.2,16.1,53,16.1,86.4C839.4,284.5,827.1,324.8,802.5,353.8z"/>
	<path class="st0" d="M701.8,142.7c-19.9,0-34.8,7.7-44.9,23.1c-10.1,15.4-15.1,38.2-15.1,68.3c0,30.2,5,53,15.1,68.3
		c10.1,15.4,24.9,23.1,44.5,23.1c19.9,0,34.8-7.7,44.9-23.1c10.1-15.4,15.1-38.2,15.1-68.3C761.4,173.2,741.5,142.7,701.8,142.7z"/>
</g>
</svg>
