<?xml version="1.0" encoding="utf-8"?>
<!-- Generator: Adobe Illustrator 24.2.3, SVG Export Plug-In . SVG Version: 6.00 Build 0)  -->
<svg version="1.1" id="Layer_1" xmlns="http://www.w3.org/2000/svg" xmlns:xlink="http://www.w3.org/1999/xlink" x="0px" y="0px"
	 viewBox="0 0 1630.61 712.24" style="enable-background:new 0 0 1630.61 712.24;" xml:space="preserve">
<style type="text/css">
	.st0{fill:#393CE1;}
</style>
<g>
	<path class="st0" d="M75.25,638.78V67.58h153.6v571.2H75.25z"/>
	<path class="st0" d="M791.24,638.78v-314.4l-101.6,314.4h-112l-101.6-316v316h-141.6V67.58h178.4l122.4,382.4l123.2-382.4h177.6
		v571.2H791.24z"/>
	<path class="st0" d="M1304.03,653.18c-58.67,0-108.94-12-150.8-36c-41.88-24-73.74-58.26-95.6-102.8
		c-21.88-44.52-32.8-97.46-32.8-158.8c0-94.92,25.06-169.06,75.2-222.4c50.13-53.32,119.46-80,208-80c58.66,0,108.92,12,150.8,36
		c41.86,24,73.72,58.27,95.6,102.8c21.86,44.54,32.8,97.47,32.8,158.8c0,94.94-25.08,169.08-75.2,222.4
		C1461.89,626.51,1392.56,653.18,1304.03,653.18z M1305.63,521.18c40.53,0,71.06-14.13,91.6-42.4c20.52-28.26,30.8-70.13,30.8-125.6
		c0-112-40.54-168-121.6-168c-40.54,0-71.07,14.14-91.6,42.4c-20.54,28.28-30.8,70.14-30.8,125.6c0,55.48,10.26,97.34,30.8,125.6
		C1235.36,507.05,1265.63,521.18,1305.63,521.18z"/>
</g>
</svg>
